<svg width="150" height="150" viewBox="0 0 150 150" fill="none" xmlns="http://www.w3.org/2000/svg">
<circle cx="75" cy="75" r="73.5" stroke="black" stroke-width="3"/>
<path d="M38.79 100.044C38.5193 99.0547 38.2953 98.238 38.118 97.594C37.95 96.95 37.8147 96.432 37.712 96.04C37.6093 95.648 37.53 95.3587 37.474 95.172C37.4273 94.9853 37.39 94.8547 37.362 94.78L35.668 100.52C35.8267 100.539 35.976 100.553 36.116 100.562C36.256 100.571 36.3867 100.576 36.508 100.576C36.8067 100.576 37.1427 100.543 37.516 100.478C37.8893 100.413 38.314 100.268 38.79 100.044ZM41.226 103.614C41.3007 103.885 41.4827 104.085 41.772 104.216C42.0613 104.347 42.416 104.412 42.836 104.412V105C42.724 105 42.584 104.995 42.416 104.986C42.2573 104.967 42.08 104.949 41.884 104.93C41.6973 104.911 41.5013 104.897 41.296 104.888C41.1 104.869 40.9133 104.86 40.736 104.86C40.5493 104.86 40.344 104.869 40.12 104.888C39.896 104.897 39.672 104.911 39.448 104.93C39.2333 104.949 39.028 104.967 38.832 104.986C38.6453 104.995 38.496 105 38.384 105V104.412C38.524 104.412 38.6733 104.407 38.832 104.398C38.9907 104.389 39.1353 104.365 39.266 104.328C39.406 104.281 39.518 104.221 39.602 104.146C39.6953 104.062 39.742 103.95 39.742 103.81C39.742 103.773 39.7327 103.717 39.714 103.642C39.7047 103.567 39.672 103.427 39.616 103.222C39.56 103.017 39.4807 102.727 39.378 102.354C39.2847 101.971 39.154 101.458 38.986 100.814C38.426 101.01 37.9313 101.141 37.502 101.206C37.082 101.271 36.6947 101.304 36.34 101.304C36.2093 101.304 36.0693 101.299 35.92 101.29C35.7707 101.281 35.6167 101.267 35.458 101.248L34.954 103.068C34.9073 103.217 34.87 103.348 34.842 103.46C34.814 103.563 34.8047 103.651 34.814 103.726C34.814 103.894 34.856 104.025 34.94 104.118C35.0333 104.202 35.15 104.267 35.29 104.314C35.43 104.361 35.584 104.389 35.752 104.398C35.9293 104.407 36.102 104.412 36.27 104.412V105C36.158 105 36.018 104.995 35.85 104.986C35.682 104.967 35.4953 104.949 35.29 104.93C35.094 104.911 34.8933 104.897 34.688 104.888C34.4827 104.869 34.2913 104.86 34.114 104.86C33.7593 104.86 33.4093 104.883 33.064 104.93C32.728 104.977 32.4527 105 32.238 105V104.412C32.658 104.412 32.9987 104.347 33.26 104.216C33.5307 104.085 33.708 103.885 33.792 103.614L34.59 101.08C34.058 100.921 33.6053 100.674 33.232 100.338C32.868 99.9927 32.686 99.5447 32.686 98.994C32.686 98.8447 32.7 98.7373 32.728 98.672C32.7653 98.6067 32.8167 98.546 32.882 98.49C32.7327 98.3127 32.658 98.0933 32.658 97.832C32.658 97.6733 32.686 97.5193 32.742 97.37C32.8073 97.2113 32.8913 97.076 32.994 96.964C33.106 96.8427 33.2367 96.7493 33.386 96.684C33.5353 96.6093 33.7033 96.572 33.89 96.572C33.9833 96.572 34.0673 96.586 34.142 96.614C34.226 96.6327 34.3007 96.6653 34.366 96.712C34.4407 96.7493 34.5153 96.8053 34.59 96.88C34.674 96.9453 34.7673 97.02 34.87 97.104C34.5153 97.2533 34.2587 97.4773 34.1 97.776C33.9413 98.0747 33.862 98.3873 33.862 98.714C33.862 99.162 33.9553 99.512 34.142 99.764C34.3287 100.016 34.5573 100.203 34.828 100.324L36.928 93.996C37.404 93.996 37.8893 93.9447 38.384 93.842C38.8787 93.7393 39.35 93.632 39.798 93.52L40.078 94.01C39.882 94.0473 39.7187 94.0893 39.588 94.136C39.4667 94.1733 39.3687 94.2247 39.294 94.29C39.2287 94.346 39.182 94.4207 39.154 94.514C39.1353 94.598 39.126 94.7053 39.126 94.836C39.126 94.9293 39.1307 95.046 39.14 95.186C39.1587 95.326 39.1913 95.5267 39.238 95.788C39.294 96.04 39.3687 96.3667 39.462 96.768C39.5553 97.1693 39.6767 97.6827 39.826 98.308C39.9847 98.924 40.176 99.666 40.4 100.534C40.6333 101.402 40.9087 102.429 41.226 103.614ZM48.5187 102.382C48.5187 101.757 48.486 101.234 48.4207 100.814C48.3647 100.394 48.276 100.058 48.1547 99.806C48.0334 99.554 47.8794 99.3767 47.6927 99.274C47.506 99.162 47.2914 99.106 47.0487 99.106C46.806 99.106 46.5727 99.1527 46.3487 99.246C46.134 99.3393 45.9427 99.4887 45.7747 99.694C45.6067 99.89 45.4714 100.151 45.3687 100.478C45.2754 100.795 45.2287 101.178 45.2287 101.626V103.614C45.2287 103.801 45.2567 103.955 45.3127 104.076C45.378 104.197 45.4527 104.295 45.5367 104.37C45.63 104.445 45.7327 104.501 45.8447 104.538C45.966 104.566 46.0827 104.58 46.1947 104.58V105C46.0827 105 45.9567 104.995 45.8167 104.986C45.686 104.967 45.546 104.949 45.3967 104.93C45.2474 104.911 45.1027 104.897 44.9627 104.888C44.832 104.869 44.7107 104.86 44.5987 104.86C44.4867 104.86 44.3607 104.869 44.2207 104.888C44.09 104.897 43.95 104.911 43.8007 104.93C43.6514 104.949 43.5067 104.967 43.3667 104.986C43.236 104.995 43.1147 105 43.0027 105V104.58C43.2547 104.58 43.4787 104.51 43.6747 104.37C43.8707 104.23 43.9687 103.978 43.9687 103.614V101.276C43.9687 100.931 43.9594 100.646 43.9407 100.422C43.9314 100.189 43.894 100.011 43.8287 99.89C43.7634 99.7593 43.67 99.6707 43.5487 99.624C43.4274 99.568 43.2594 99.54 43.0447 99.54V99.19C43.278 99.19 43.4787 99.176 43.6467 99.148C43.824 99.12 43.9827 99.078 44.1227 99.022C44.2627 98.966 44.3887 98.9007 44.5007 98.826C44.622 98.7513 44.748 98.672 44.8787 98.588H45.2287V99.568C45.406 99.2413 45.6487 98.9753 45.9567 98.77C46.274 98.5553 46.6474 98.448 47.0767 98.448C48.0007 98.448 48.682 98.728 49.1207 99.288C49.5594 99.848 49.7787 100.777 49.7787 102.074V103.544C49.7787 103.731 49.8067 103.885 49.8627 104.006C49.928 104.127 50.0027 104.225 50.0867 104.3C50.18 104.375 50.2827 104.431 50.3947 104.468C50.516 104.496 50.6327 104.51 50.7447 104.51V105C50.6234 105 50.516 104.995 50.4227 104.986C50.3294 104.967 50.2314 104.953 50.1287 104.944C50.0354 104.925 49.9234 104.911 49.7927 104.902C49.6714 104.883 49.522 104.874 49.3447 104.874C49.2234 104.874 49.0834 104.883 48.9247 104.902C48.7754 104.911 48.5934 104.944 48.3787 105L48.2527 104.762C48.318 104.697 48.3694 104.58 48.4067 104.412C48.444 104.235 48.4674 104.034 48.4767 103.81C48.4954 103.586 48.5047 103.348 48.5047 103.096C48.514 102.844 48.5187 102.606 48.5187 102.382ZM53.4972 103.614C53.4972 103.801 53.5252 103.955 53.5812 104.076C53.6466 104.197 53.7212 104.295 53.8052 104.37C53.8986 104.445 54.0012 104.501 54.1132 104.538C54.2346 104.566 54.3512 104.58 54.4632 104.58V105C54.3512 105 54.2252 104.995 54.0852 104.986C53.9546 104.967 53.8146 104.949 53.6652 104.93C53.5159 104.911 53.3712 104.897 53.2312 104.888C53.1006 104.869 52.9792 104.86 52.8672 104.86C52.7552 104.86 52.6292 104.869 52.4892 104.888C52.3586 104.897 52.2186 104.911 52.0692 104.93C51.9199 104.949 51.7752 104.967 51.6352 104.986C51.5046 104.995 51.3832 105 51.2712 105V104.58C51.5232 104.58 51.7472 104.51 51.9432 104.37C52.1392 104.23 52.2372 103.978 52.2372 103.614V96.432C52.2372 96.0867 52.2279 95.802 52.2092 95.578C52.1999 95.3447 52.1626 95.1673 52.0972 95.046C52.0319 94.9153 51.9386 94.8267 51.8172 94.78C51.6959 94.724 51.5279 94.696 51.3132 94.696V94.276C51.5466 94.276 51.7472 94.262 51.9152 94.234C52.0926 94.206 52.2512 94.164 52.3912 94.108C52.5312 94.052 52.6572 93.9867 52.7692 93.912C52.8906 93.8373 53.0166 93.758 53.1472 93.674H53.4972V101.556L54.7852 99.974C54.9906 99.722 55.1586 99.5213 55.2892 99.372C55.4199 99.2133 55.5272 99.0967 55.6112 99.022C55.7046 98.9473 55.7839 98.9007 55.8492 98.882C55.9239 98.854 56.0079 98.84 56.1012 98.84C56.1479 98.7747 56.2319 98.7187 56.3532 98.672C56.4746 98.616 56.6006 98.588 56.7312 98.588C56.9179 98.588 57.0719 98.6533 57.1932 98.784C57.3146 98.9053 57.3892 99.0733 57.4172 99.288L57.3752 99.33C57.2912 99.246 57.1699 99.204 57.0112 99.204C56.8806 99.204 56.7546 99.2413 56.6332 99.316C56.5212 99.3907 56.3999 99.4887 56.2692 99.61C56.1479 99.722 56.0219 99.8573 55.8912 100.016C55.7699 100.165 55.6392 100.315 55.4992 100.464L54.9532 101.08L56.9132 103.572C57.1559 103.917 57.3846 104.174 57.5992 104.342C57.8232 104.501 58.0146 104.58 58.1732 104.58V105C58.0986 105 57.9866 104.995 57.8372 104.986C57.6972 104.977 57.5479 104.967 57.3892 104.958C57.2306 104.939 57.0766 104.925 56.9272 104.916C56.7872 104.897 56.6799 104.888 56.6052 104.888C56.5306 104.888 56.4186 104.897 56.2692 104.916C56.1292 104.925 55.9752 104.939 55.8072 104.958C55.6486 104.967 55.4946 104.977 55.3452 104.986C55.2052 104.995 55.0979 105 55.0232 105V104.58C55.0792 104.58 55.1399 104.575 55.2052 104.566C55.2799 104.557 55.3452 104.538 55.4012 104.51C55.4666 104.482 55.5226 104.44 55.5692 104.384C55.6159 104.328 55.6392 104.258 55.6392 104.174C55.6392 104.062 55.5972 103.945 55.5132 103.824C55.4386 103.703 55.3872 103.619 55.3592 103.572L54.1692 101.948L53.4972 102.704V103.614ZM63.8243 101.346C63.8243 101.001 63.815 100.716 63.7963 100.492C63.787 100.259 63.7496 100.081 63.6843 99.96C63.619 99.8293 63.5256 99.7407 63.4043 99.694C63.283 99.638 63.115 99.61 62.9003 99.61V99.19C63.1336 99.19 63.3296 99.176 63.4883 99.148C63.6563 99.12 63.8056 99.078 63.9363 99.022C64.067 98.966 64.1883 98.9007 64.3003 98.826C64.4123 98.7513 64.5336 98.672 64.6643 98.588H65.0843V103.558C65.0843 103.745 65.1123 103.899 65.1683 104.02C65.2336 104.141 65.3083 104.239 65.3923 104.314C65.4856 104.389 65.5883 104.445 65.7003 104.482C65.8216 104.51 65.9383 104.524 66.0503 104.524V105.014C65.8356 104.986 65.649 104.963 65.4903 104.944C65.341 104.916 65.1496 104.902 64.9163 104.902C64.599 104.902 64.2816 104.935 63.9643 105L63.8243 104.86V104.076C63.7216 104.235 63.6143 104.384 63.5023 104.524C63.3996 104.655 63.2736 104.771 63.1243 104.874C62.975 104.967 62.8023 105.042 62.6063 105.098C62.4103 105.163 62.177 105.196 61.9063 105.196C60.973 105.196 60.3056 104.911 59.9043 104.342C59.503 103.763 59.293 102.928 59.2743 101.836C59.265 101.332 59.251 100.935 59.2323 100.646C59.223 100.347 59.1903 100.123 59.1343 99.974C59.0783 99.8153 58.9896 99.7173 58.8683 99.68C58.747 99.6333 58.5743 99.61 58.3503 99.61V99.19C58.5836 99.19 58.7796 99.176 58.9383 99.148C59.1063 99.12 59.2556 99.078 59.3863 99.022C59.517 98.966 59.6383 98.9007 59.7503 98.826C59.8623 98.7513 59.9836 98.672 60.1143 98.588H60.5343V101.542C60.5343 102.111 60.5716 102.587 60.6463 102.97C60.721 103.353 60.8236 103.661 60.9543 103.894C61.0943 104.127 61.2576 104.295 61.4443 104.398C61.631 104.491 61.8363 104.538 62.0603 104.538C62.3216 104.538 62.5596 104.473 62.7743 104.342C62.9983 104.202 63.185 104.011 63.3343 103.768C63.493 103.525 63.6143 103.241 63.6983 102.914C63.7823 102.578 63.8243 102.219 63.8243 101.836V101.346ZM71.6768 99.75C71.6768 100.105 71.5554 100.366 71.3128 100.534C71.0794 100.693 70.8134 100.772 70.5148 100.772L70.4728 100.702C70.5381 100.674 70.6081 100.604 70.6828 100.492C70.7574 100.38 70.7948 100.231 70.7948 100.044C70.7948 99.7267 70.6781 99.4933 70.4448 99.344C70.2114 99.1853 69.9034 99.106 69.5208 99.106C69.4274 99.106 69.3154 99.1153 69.1848 99.134C69.0541 99.1527 68.9281 99.1947 68.8068 99.26C68.6854 99.3253 68.5781 99.4187 68.4848 99.54C68.4008 99.6613 68.3588 99.82 68.3588 100.016C68.3588 100.277 68.4474 100.483 68.6248 100.632C68.8021 100.781 69.0214 100.907 69.2828 101.01C69.5534 101.113 69.8428 101.211 70.1508 101.304C70.4588 101.397 70.7434 101.519 71.0048 101.668C71.2754 101.817 71.4994 102.013 71.6768 102.256C71.8541 102.499 71.9428 102.821 71.9428 103.222C71.9428 103.875 71.6954 104.37 71.2008 104.706C70.7154 105.033 70.0714 105.196 69.2688 105.196C69.2128 105.196 69.1241 105.191 69.0028 105.182C68.8814 105.182 68.7601 105.173 68.6388 105.154C68.5268 105.135 68.4241 105.107 68.3308 105.07C68.2374 105.033 68.1908 104.977 68.1908 104.902C67.7988 104.902 67.5048 104.799 67.3088 104.594C67.1128 104.389 67.0148 104.127 67.0148 103.81C67.0148 103.465 67.1128 103.217 67.3088 103.068C67.5141 102.919 67.7474 102.835 68.0088 102.816L68.0368 102.858C67.9621 102.942 67.9154 103.054 67.8968 103.194C67.8781 103.325 67.8688 103.427 67.8688 103.502C67.8688 103.707 67.9154 103.88 68.0088 104.02C68.1021 104.151 68.2188 104.258 68.3588 104.342C68.4988 104.417 68.6528 104.473 68.8208 104.51C68.9981 104.538 69.1708 104.552 69.3388 104.552C69.3761 104.552 69.4601 104.547 69.5908 104.538C69.7308 104.529 69.8708 104.496 70.0108 104.44C70.1508 104.375 70.2768 104.277 70.3888 104.146C70.5008 104.006 70.5568 103.815 70.5568 103.572C70.5568 103.283 70.4728 103.054 70.3048 102.886C70.1368 102.718 69.9221 102.578 69.6608 102.466C69.4088 102.354 69.1334 102.251 68.8348 102.158C68.5361 102.055 68.2561 101.934 67.9948 101.794C67.7428 101.654 67.5328 101.472 67.3648 101.248C67.1968 101.015 67.1128 100.707 67.1128 100.324C67.1128 99.9413 67.1968 99.6287 67.3648 99.386C67.5328 99.1433 67.7428 98.952 67.9948 98.812C68.2468 98.672 68.5128 98.5787 68.7928 98.532C69.0821 98.476 69.3434 98.448 69.5768 98.448C69.8754 98.448 70.1041 98.476 70.2628 98.532C70.4214 98.588 70.5008 98.6673 70.5008 98.77C70.6408 98.77 70.7808 98.7887 70.9208 98.826C71.0608 98.854 71.1868 98.9053 71.2988 98.98C71.4108 99.0547 71.4994 99.1573 71.5648 99.288C71.6394 99.4093 71.6768 99.5633 71.6768 99.75ZM75.0851 103.614C75.0851 103.801 75.1131 103.955 75.1691 104.076C75.2344 104.197 75.3091 104.295 75.3931 104.37C75.4864 104.445 75.5891 104.501 75.7011 104.538C75.8224 104.566 75.9391 104.58 76.0511 104.58V105C75.9391 105 75.8131 104.995 75.6731 104.986C75.5424 104.967 75.4024 104.949 75.2531 104.93C75.1038 104.911 74.9591 104.897 74.8191 104.888C74.6884 104.869 74.5671 104.86 74.4551 104.86C74.3431 104.86 74.2171 104.869 74.0771 104.888C73.9464 104.897 73.8064 104.911 73.6571 104.93C73.5078 104.949 73.3631 104.967 73.2231 104.986C73.0924 104.995 72.9711 105 72.8591 105V104.58C73.1111 104.58 73.3351 104.51 73.5311 104.37C73.7271 104.23 73.8251 103.978 73.8251 103.614V96.362C73.8251 96.0167 73.8158 95.732 73.7971 95.508C73.7878 95.2747 73.7504 95.0973 73.6851 94.976C73.6198 94.8453 73.5264 94.7567 73.4051 94.71C73.2838 94.654 73.1158 94.626 72.9011 94.626V94.276C73.1344 94.276 73.3351 94.262 73.5031 94.234C73.6804 94.206 73.8391 94.164 73.9791 94.108C74.1191 94.052 74.2451 93.9867 74.3571 93.912C74.4784 93.8373 74.6044 93.758 74.7351 93.674H75.0851V99.568C75.1784 99.4187 75.2904 99.2787 75.4211 99.148C75.5518 99.008 75.7058 98.8867 75.8831 98.784C76.0604 98.6813 76.2658 98.602 76.4991 98.546C76.7324 98.4807 77.0031 98.448 77.3111 98.448C77.7031 98.448 78.0531 98.5087 78.3611 98.63C78.6691 98.7513 78.9258 98.9473 79.1311 99.218C79.3458 99.4793 79.5044 99.8247 79.6071 100.254C79.7191 100.674 79.7751 101.187 79.7751 101.794V103.46C79.7751 104.057 79.7938 104.538 79.8311 104.902C79.8778 105.266 79.9338 105.546 79.9991 105.742C80.0738 105.938 80.1578 106.069 80.2511 106.134C80.3538 106.199 80.4564 106.232 80.5591 106.232C80.6618 106.232 80.7551 106.223 80.8391 106.204C80.9231 106.195 81.0164 106.153 81.1191 106.078L81.1891 106.134C81.0864 106.386 80.9324 106.587 80.7271 106.736C80.5218 106.895 80.2978 106.974 80.0551 106.974C79.8124 106.974 79.5978 106.899 79.4111 106.75C79.2244 106.601 79.1311 106.4 79.1311 106.148C79.0098 106.083 78.9071 106.013 78.8231 105.938C78.7484 105.873 78.6878 105.775 78.6411 105.644C78.5944 105.513 78.5618 105.336 78.5431 105.112C78.5244 104.897 78.5151 104.608 78.5151 104.244V102.102C78.5151 101.514 78.4824 101.029 78.4171 100.646C78.3518 100.263 78.2584 99.96 78.1371 99.736C78.0158 99.5027 77.8664 99.3393 77.6891 99.246C77.5211 99.1527 77.3344 99.106 77.1291 99.106C76.9144 99.106 76.6858 99.1527 76.4431 99.246C76.2004 99.33 75.9764 99.4747 75.7711 99.68C75.5751 99.876 75.4118 100.137 75.2811 100.464C75.1504 100.781 75.0851 101.169 75.0851 101.626V103.614ZM87.3906 103.586C87.3906 103.978 87.4699 104.351 87.6286 104.706C87.7872 105.061 87.9972 105.369 88.2586 105.63C88.5199 105.901 88.8186 106.111 89.1546 106.26C89.4906 106.419 89.8406 106.498 90.2046 106.498C90.5312 106.498 90.8019 106.409 91.0166 106.232C91.2312 106.055 91.3619 105.742 91.4086 105.294L91.4506 105.252C91.7772 105.336 92.0059 105.467 92.1366 105.644C92.2766 105.821 92.3466 106.013 92.3466 106.218C92.3466 106.47 92.2719 106.643 92.1226 106.736C91.9826 106.839 91.8472 106.913 91.7166 106.96C91.7166 107.128 91.6746 107.259 91.5906 107.352C91.5066 107.455 91.4039 107.529 91.2826 107.576C91.1706 107.632 91.0446 107.665 90.9046 107.674C90.7739 107.693 90.6572 107.702 90.5546 107.702C90.1626 107.702 89.8032 107.632 89.4766 107.492C89.1592 107.361 88.8606 107.198 88.5806 107.002C88.3006 106.806 88.0346 106.587 87.7826 106.344C87.5306 106.111 87.2739 105.896 87.0126 105.7C86.7606 105.504 86.4946 105.336 86.2146 105.196C85.9439 105.065 85.6452 105 85.3186 105H84.8846V104.412C85.0059 104.412 85.1412 104.407 85.2906 104.398C85.4399 104.379 85.5752 104.333 85.6966 104.258C85.8179 104.183 85.9206 104.067 86.0046 103.908C86.0886 103.74 86.1306 103.507 86.1306 103.208V95.004C86.1306 94.7147 86.0186 94.4953 85.7946 94.346C85.5799 94.1873 85.2766 94.108 84.8846 94.108C84.8846 93.9493 84.9406 93.814 85.0526 93.702C85.1646 93.5807 85.3606 93.52 85.6406 93.52C85.8832 93.52 86.0979 93.562 86.2846 93.646C86.4806 93.73 86.6392 93.8327 86.7606 93.954C86.8819 93.8327 87.0359 93.73 87.2226 93.646C87.4186 93.562 87.6379 93.52 87.8806 93.52C88.1606 93.52 88.3566 93.5807 88.4686 93.702C88.5806 93.814 88.6366 93.9493 88.6366 94.108C88.2539 94.108 87.9506 94.1873 87.7266 94.346C87.5026 94.4953 87.3906 94.7147 87.3906 95.004V103.586ZM94.3386 105.196C93.8719 105.196 93.4379 105.117 93.0366 104.958C92.6446 104.79 92.2993 104.557 92.0006 104.258C91.7019 103.959 91.4686 103.6 91.3006 103.18C91.1326 102.76 91.0486 102.289 91.0486 101.766C91.0486 101.234 91.1326 100.763 91.3006 100.352C91.4686 99.9413 91.7019 99.596 92.0006 99.316C92.2993 99.0267 92.6446 98.812 93.0366 98.672C93.4379 98.5227 93.8719 98.448 94.3386 98.448C94.7959 98.448 95.2253 98.5227 95.6266 98.672C96.0279 98.812 96.3779 99.0267 96.6766 99.316C96.9753 99.596 97.2086 99.9413 97.3766 100.352C97.5446 100.763 97.6286 101.234 97.6286 101.766C97.6286 102.298 97.5446 102.774 97.3766 103.194C97.2086 103.614 96.9753 103.973 96.6766 104.272C96.3779 104.571 96.0279 104.799 95.6266 104.958C95.2253 105.117 94.7959 105.196 94.3386 105.196ZM94.3526 104.552C94.6979 104.552 94.9919 104.477 95.2346 104.328C95.4773 104.179 95.6779 103.978 95.8366 103.726C95.9953 103.465 96.1119 103.166 96.1866 102.83C96.2613 102.494 96.2986 102.139 96.2986 101.766C96.2986 101.402 96.2613 101.057 96.1866 100.73C96.1119 100.403 95.9953 100.123 95.8366 99.89C95.6779 99.6473 95.4726 99.456 95.2206 99.316C94.9779 99.176 94.6839 99.106 94.3386 99.106C93.9933 99.106 93.6946 99.176 93.4426 99.316C93.1999 99.4467 92.9993 99.6333 92.8406 99.876C92.6819 100.109 92.5653 100.389 92.4906 100.716C92.4159 101.043 92.3786 101.393 92.3786 101.766C92.3786 102.139 92.4159 102.494 92.4906 102.83C92.5653 103.166 92.6819 103.465 92.8406 103.726C93.0086 103.978 93.2139 104.179 93.4566 104.328C93.7086 104.477 94.0073 104.552 94.3526 104.552ZM105.087 103.306C105.087 104.165 105.171 104.813 105.339 105.252C105.507 105.7 105.853 105.924 106.375 105.924C106.441 105.924 106.515 105.919 106.599 105.91C106.693 105.901 106.763 105.887 106.809 105.868L106.851 105.938C106.73 106.134 106.562 106.265 106.347 106.33C106.142 106.395 105.946 106.428 105.759 106.428C105.395 106.428 105.111 106.349 104.905 106.19C104.709 106.031 104.611 105.835 104.611 105.602C104.341 105.602 104.149 105.504 104.037 105.308C103.925 105.112 103.86 104.818 103.841 104.426C103.524 104.734 103.193 104.939 102.847 105.042C102.511 105.145 102.185 105.196 101.867 105.196C101.363 105.196 100.92 105.112 100.537 104.944C100.155 104.776 99.8326 104.543 99.5712 104.244C99.3099 103.936 99.1139 103.572 98.9832 103.152C98.8526 102.732 98.7872 102.27 98.7872 101.766C98.7872 101.178 98.8759 100.679 99.0532 100.268C99.2399 99.848 99.4779 99.5027 99.7672 99.232C100.066 98.9613 100.402 98.7653 100.775 98.644C101.158 98.5133 101.545 98.448 101.937 98.448C102.329 98.448 102.675 98.5087 102.973 98.63C103.272 98.7513 103.557 98.966 103.827 99.274V96.432C103.827 96.0867 103.818 95.802 103.799 95.578C103.79 95.3447 103.753 95.1673 103.687 95.046C103.622 94.9153 103.529 94.8267 103.407 94.78C103.286 94.724 103.118 94.696 102.903 94.696V94.276C103.137 94.276 103.333 94.262 103.491 94.234C103.659 94.206 103.809 94.164 103.939 94.108C104.07 94.052 104.191 93.9867 104.303 93.912C104.415 93.8373 104.537 93.758 104.667 93.674H105.087V103.306ZM101.937 104.552C102.255 104.552 102.535 104.482 102.777 104.342C103.02 104.193 103.216 103.992 103.365 103.74C103.524 103.488 103.641 103.199 103.715 102.872C103.799 102.536 103.841 102.177 103.841 101.794C103.841 101.43 103.804 101.089 103.729 100.772C103.655 100.445 103.538 100.161 103.379 99.918C103.221 99.666 103.02 99.47 102.777 99.33C102.544 99.19 102.259 99.12 101.923 99.12C101.587 99.12 101.303 99.19 101.069 99.33C100.836 99.4607 100.649 99.6473 100.509 99.89C100.369 100.123 100.267 100.403 100.201 100.73C100.145 101.047 100.117 101.393 100.117 101.766C100.117 102.13 100.145 102.48 100.201 102.816C100.257 103.152 100.355 103.451 100.495 103.712C100.635 103.964 100.822 104.169 101.055 104.328C101.289 104.477 101.583 104.552 101.937 104.552ZM108.745 103.614C108.745 103.801 108.773 103.955 108.829 104.076C108.895 104.197 108.969 104.295 109.053 104.37C109.147 104.445 109.249 104.501 109.361 104.538C109.483 104.566 109.599 104.58 109.711 104.58V105C109.599 105 109.473 104.995 109.333 104.986C109.203 104.967 109.063 104.949 108.913 104.93C108.764 104.911 108.619 104.897 108.479 104.888C108.349 104.869 108.227 104.86 108.115 104.86C108.003 104.86 107.877 104.869 107.737 104.888C107.607 104.897 107.467 104.911 107.317 104.93C107.168 104.949 107.023 104.967 106.883 104.986C106.753 104.995 106.631 105 106.519 105V104.58C106.771 104.58 106.995 104.51 107.191 104.37C107.387 104.23 107.485 103.978 107.485 103.614V96.362C107.485 96.0167 107.476 95.732 107.457 95.508C107.448 95.2747 107.411 95.0973 107.345 94.976C107.28 94.8453 107.187 94.7567 107.065 94.71C106.944 94.654 106.776 94.626 106.561 94.626V94.276C106.795 94.276 106.995 94.262 107.163 94.234C107.341 94.206 107.499 94.164 107.639 94.108C107.779 94.052 107.905 93.9867 108.017 93.912C108.139 93.8373 108.265 93.758 108.395 93.674H108.745V99.568C108.839 99.4187 108.951 99.2787 109.081 99.148C109.212 99.008 109.366 98.8867 109.543 98.784C109.721 98.6813 109.926 98.602 110.159 98.546C110.393 98.4807 110.663 98.448 110.971 98.448C111.363 98.448 111.713 98.5087 112.021 98.63C112.329 98.7513 112.586 98.9473 112.791 99.218C113.006 99.4793 113.165 99.8247 113.267 100.254C113.379 100.674 113.435 101.187 113.435 101.794V103.46C113.435 104.057 113.454 104.538 113.491 104.902C113.538 105.266 113.594 105.546 113.659 105.742C113.734 105.938 113.818 106.069 113.911 106.134C114.014 106.199 114.117 106.232 114.219 106.232C114.322 106.232 114.415 106.223 114.499 106.204C114.583 106.195 114.677 106.153 114.779 106.078L114.849 106.134C114.747 106.386 114.593 106.587 114.387 106.736C114.182 106.895 113.958 106.974 113.715 106.974C113.473 106.974 113.258 106.899 113.071 106.75C112.885 106.601 112.791 106.4 112.791 106.148C112.67 106.083 112.567 106.013 112.483 105.938C112.409 105.873 112.348 105.775 112.301 105.644C112.255 105.513 112.222 105.336 112.203 105.112C112.185 104.897 112.175 104.608 112.175 104.244V102.102C112.175 101.514 112.143 101.029 112.077 100.646C112.012 100.263 111.919 99.96 111.797 99.736C111.676 99.5027 111.527 99.3393 111.349 99.246C111.181 99.1527 110.995 99.106 110.789 99.106C110.575 99.106 110.346 99.1527 110.103 99.246C109.861 99.33 109.637 99.4747 109.431 99.68C109.235 99.876 109.072 100.137 108.941 100.464C108.811 100.781 108.745 101.169 108.745 101.626V103.614ZM115.479 96.376C115.479 96.096 115.577 95.8627 115.773 95.676C115.969 95.48 116.202 95.382 116.473 95.382C116.743 95.382 116.972 95.48 117.159 95.676C117.355 95.8627 117.453 96.096 117.453 96.376C117.453 96.656 117.355 96.894 117.159 97.09C116.972 97.2767 116.743 97.37 116.473 97.37C116.202 97.37 115.969 97.2767 115.773 97.09C115.577 96.894 115.479 96.656 115.479 96.376ZM117.061 103.614C117.061 103.801 117.089 103.955 117.145 104.076C117.21 104.197 117.285 104.295 117.369 104.37C117.462 104.445 117.565 104.501 117.677 104.538C117.798 104.566 117.915 104.58 118.027 104.58V105C117.915 105 117.789 104.995 117.649 104.986C117.518 104.967 117.378 104.949 117.229 104.93C117.079 104.911 116.935 104.897 116.795 104.888C116.664 104.869 116.543 104.86 116.431 104.86C116.319 104.86 116.193 104.869 116.053 104.888C115.922 104.897 115.782 104.911 115.633 104.93C115.483 104.949 115.339 104.967 115.199 104.986C115.068 104.995 114.947 105 114.835 105V104.58C115.087 104.58 115.311 104.51 115.507 104.37C115.703 104.23 115.801 103.978 115.801 103.614V101.206C115.801 100.861 115.791 100.576 115.773 100.352C115.763 100.119 115.726 99.9413 115.661 99.82C115.595 99.6893 115.502 99.6007 115.381 99.554C115.259 99.498 115.091 99.47 114.877 99.47V99.05C115.11 99.05 115.306 99.036 115.465 99.008C115.633 98.98 115.782 98.938 115.913 98.882C116.043 98.826 116.165 98.7607 116.277 98.686C116.389 98.6113 116.51 98.532 116.641 98.448H117.061V103.614Z" fill="#4F4A4A"/>
<path d="M42 41H54" stroke="black" stroke-width="3"/>
<path d="M98 83H110" stroke="black" stroke-width="3"/>
<path d="M53 54H74" stroke="black" stroke-width="3"/>
<path d="M79 70H100" stroke="black" stroke-width="3"/>
<path d="M57 83H80" stroke="black" stroke-width="3"/>
<path d="M72 41H96" stroke="black" stroke-width="3"/>
<path d="M63.5 82.5L48 41" stroke="black" stroke-width="3"/>
<path d="M63 82.5L78.5 41" stroke="black" stroke-width="3"/>
<path d="M73 83.5L88.5 42" stroke="black" stroke-width="3"/>
<path d="M104 83.5L89 43" stroke="black" stroke-width="3"/>
</svg>
