<svg width="130" height="130" viewBox="0 0 130 130" fill="none" xmlns="http://www.w3.org/2000/svg">
<path d="M42.2945 76.2394C25.6071 78.0822 28.9429 69.329 32.6967 64.7221C28.9088 67.1791 26.7674 71.5472 26.1702 73.4241C24.225 84.3784 39.4364 82.254 47.2853 79.8226C50.2286 79.1828 61.8739 74.4052 67.3767 71.7605C74.7478 68.4844 84.5247 59.5606 88.4918 55.5082C92.5869 50.9013 92.8002 46.6782 92.203 45.0146C90.3602 41.1243 85.2926 41.0049 82.9891 41.4314C93.3291 43.7861 85.1646 53.8446 79.7898 58.5795C65.2524 70.8647 48.7356 75.4716 42.2945 76.2394Z" fill="#FF8615"/>
<path d="M58.6748 39L43.4463 76.7513L47.7973 76.1115L56.1154 55.7641L61.874 70.0968L70.4481 65.8738L58.6748 39Z" fill="#FF8615"/>
<path d="M67.1206 84.5575C68.6563 88.3454 65.8836 89.8896 64.3053 90.1882H81.7093L72.1115 70.2248L63.2815 75.2157L67.1206 84.5575Z" fill="#FF8615"/>
<path d="M40.5028 83.2778C39.4791 88.0895 34.9574 90.2309 32.8246 90.7001H47.6692C42.0385 90.1882 43.958 84.8561 45.6216 82.254L40.5028 83.2778Z" fill="#FF8615"/>
<path d="M78.6381 65.8738L74.799 68.6892L78.6381 76.3674V65.8738Z" fill="#01327D"/>
<path d="M65.4571 39.7678H63.4095V39H84.0128V39.7678H81.9653C80.5576 39.6399 79.022 41.5594 78.766 43.223V59.0914L72.3675 63.8263L68.4004 56.0201V42.5832C68.0165 41.0475 66.4808 40.0238 65.4571 39.7678Z" fill="#01327D"/>
<path d="M93.8667 88.0127H82.4773L83.5011 90.956H102.057C102.671 89.5228 104.275 80.5478 105 76.2394C102.134 84.9414 96.2981 87.6288 93.8667 88.0127Z" fill="#01327D"/>
<circle cx="65" cy="65" r="62.5" stroke="#FF8615" stroke-width="5"/>
</svg>
